<?xml version="1.0" encoding="UTF-8"?>
<svg version="1.1" xmlns="http://www.w3.org/2000/svg" width="500" height="500">
<path d="M0 0 C0.90045044 -0.00705963 1.80090088 -0.01411926 2.7286377 -0.02139282 C40.56271231 -0.2507174 40.56271231 -0.2507174 57.20703125 3.203125 C58.69759033 3.50911621 58.69759033 3.50911621 60.21826172 3.82128906 C82.21378087 8.47295034 102.99514255 15.36588877 123.20703125 25.203125 C123.94405273 25.56132324 124.68107422 25.91952148 125.44042969 26.28857422 C144.89901796 35.8774365 162.98020988 48.4248097 178.93359375 63.11328125 C181.05333337 65.06183915 183.21186594 66.95069833 185.39453125 68.828125 C191.89170121 74.51964589 197.4893498 80.59900765 202.8984375 87.33984375 C204.36112473 89.1539719 205.84574865 90.95080689 207.359375 92.72265625 C240.62231866 131.88029879 262.13973065 186.51250595 262.41015625 237.99609375 C262.41721588 238.89654419 262.42427551 239.79699463 262.43154907 240.72473145 C262.66087365 278.55880606 262.66087365 278.55880606 259.20703125 295.203125 C258.90104004 296.69368408 258.90104004 296.69368408 258.58886719 298.21435547 C253.93720591 320.20987462 247.04426748 340.9912363 237.20703125 361.203125 C236.84883301 361.94014648 236.49063477 362.67716797 236.12158203 363.43652344 C226.53271975 382.89511171 213.98534655 400.97630363 199.296875 416.9296875 C197.3483171 419.04942712 195.45945792 421.20795969 193.58203125 423.390625 C187.89051036 429.88779496 181.8111486 435.48544355 175.0703125 440.89453125 C173.25618435 442.35721848 171.45934936 443.8418424 169.6875 445.35546875 C130.52985746 478.61841241 75.8976503 500.1358244 24.4140625 500.40625 C23.06338684 500.41683945 23.06338684 500.41683945 21.6854248 500.42764282 C-16.14864981 500.6569674 -16.14864981 500.6569674 -32.79296875 497.203125 C-34.28352783 496.89713379 -34.28352783 496.89713379 -35.80419922 496.58496094 C-57.79971837 491.93329966 -78.58108005 485.04036123 -98.79296875 475.203125 C-99.52999023 474.84492676 -100.26701172 474.48672852 -101.02636719 474.11767578 C-120.48495546 464.5288135 -138.56614738 451.9814403 -154.51953125 437.29296875 C-156.63927087 435.34441085 -158.79780344 433.45555167 -160.98046875 431.578125 C-167.47763871 425.88660411 -173.0752873 419.80724235 -178.484375 413.06640625 C-179.94706223 411.2522781 -181.43168615 409.45544311 -182.9453125 407.68359375 C-216.20825616 368.52595121 -237.72566815 313.89374405 -237.99609375 262.41015625 C-238.00315338 261.50970581 -238.01021301 260.60925537 -238.01748657 259.68151855 C-238.24681115 221.84744394 -238.24681115 221.84744394 -234.79296875 205.203125 C-234.48697754 203.71256592 -234.48697754 203.71256592 -234.17480469 202.19189453 C-229.52314341 180.19637538 -222.63020498 159.4150137 -212.79296875 139.203125 C-212.43477051 138.46610352 -212.07657227 137.72908203 -211.70751953 136.96972656 C-202.11865725 117.51113829 -189.57128405 99.42994637 -174.8828125 83.4765625 C-172.9342546 81.35682288 -171.04539542 79.19829031 -169.16796875 77.015625 C-163.47644786 70.51845504 -157.3970861 64.92080645 -150.65625 59.51171875 C-148.84212185 58.04903152 -147.04528686 56.5644076 -145.2734375 55.05078125 C-106.11579496 21.78783759 -51.4835878 0.2704256 0 0 Z " fill="#39B6FE" transform="translate(237.79296875,-0.203125)"/>
<path d="M0 0 C66.99 0 133.98 0 203 0 C203 111.66001712 203 111.66001712 175.375 140.25 C168.92794514 146.67526249 162.15113394 150.99093412 154 155 C153.40268066 155.32492432 152.80536133 155.64984863 152.18994141 155.98461914 C146.70819183 158.91049081 141.11651225 160.60102667 135.125 162.1875 C134.19558594 162.44724609 133.26617187 162.70699219 132.30859375 162.97460938 C103.74279697 170.68378884 70.29971859 167.20012256 44.10546875 153.484375 C22.2989841 140.6313397 9.98114528 119.85224638 3 96 C-2.56384542 64.47154263 0 32.01562119 0 0 Z " fill="#FDFEFE" transform="translate(150,231)"/>
<path d="M0 0 C44.22 0 88.44 0 134 0 C134 42.76819843 134 42.76819843 128.875 54.0625 C128.412146 55.08645874 128.412146 55.08645874 127.93994141 56.13110352 C121.91051364 68.94628998 111.98126312 77.7934797 99 83.375 C97.34330999 83.9464532 95.67598547 84.48789333 94 85 C93.1440625 85.29648437 92.288125 85.59296875 91.40625 85.8984375 C72.58287007 91.41389022 46.57667736 90.17568295 28.875 81.3125 C14.63106586 72.41283629 5.71708353 59.74338008 1.75 43.4375 C-0.7226649 28.80756601 0 15.06837194 0 0 Z " fill="#38B6FF" transform="translate(184,270)"/>
<path d="M0 0 C3.61842853 2.968967 6.32471061 5.98975682 7.828125 10.5 C7.92045155 12.75735403 7.95005427 15.01741639 7.94837952 17.2766571 C7.94923394 17.96934073 7.95008837 18.66202435 7.95096868 19.37569839 C7.95261871 21.70190773 7.9471099 24.02804532 7.94165039 26.35424805 C7.94136839 28.01969399 7.9415265 29.68514006 7.9420929 31.35058594 C7.94238037 35.87713428 7.93649171 40.40365623 7.92951894 44.93019843 C7.92327709 49.65877128 7.92268094 54.38734469 7.92149353 59.11592102 C7.91838268 68.07252509 7.91017258 77.02911698 7.90014404 85.98571569 C7.88897529 96.18147837 7.88347053 106.37724162 7.87844861 116.57300889 C7.86798978 137.54868091 7.84964733 158.52433622 7.828125 179.5 C-4.711875 179.5 -17.251875 179.5 -30.171875 179.5 C-30.23962627 157.86406733 -30.29487678 136.22822071 -30.32731152 114.59220886 C-30.34277259 104.54597167 -30.36384764 94.49980513 -30.39819336 84.45361328 C-30.42811891 75.69614552 -30.44745552 66.93872894 -30.45414048 58.18121147 C-30.45804738 53.54526305 -30.46721339 48.90946102 -30.48906517 44.27355957 C-30.50948017 39.90695288 -30.51569868 35.5405524 -30.51119804 31.17390251 C-30.512021 29.57436946 -30.51795677 27.97482927 -30.52949142 26.3753376 C-30.65037451 8.74260505 -30.65037451 8.74260505 -25.3046875 2.22265625 C-24.64210937 1.67480469 -23.97953125 1.12695312 -23.296875 0.5625 C-22.63945312 -0.00339844 -21.98203125 -0.56929687 -21.3046875 -1.15234375 C-14.40534542 -5.51181814 -6.3978668 -4.43316755 0 0 Z " fill="#1800AD" transform="translate(180.171875,51.5)"/>
<path d="M0 0 C5.40965858 5.93578497 6.30625202 11.14358209 6.2109375 19.0546875 C5.82269553 24.4756958 3.98240366 27.06030954 0.125 30.75 C-6.36667426 35.42400547 -12.95211186 36.06668573 -20.765625 36.0234375 C-21.56258789 36.02005371 -22.35955078 36.01666992 -23.18066406 36.01318359 C-23.78104492 36.00883301 -24.38142578 36.00448242 -25 36 C-25.28822426 31.73182804 -25.57291877 27.46343888 -25.85449219 23.19482422 C-25.95055202 21.74586801 -26.04753848 20.29697289 -26.14550781 18.84814453 C-26.28700717 16.75308778 -26.42505657 14.65782629 -26.5625 12.5625 C-26.64628906 11.30566406 -26.73007812 10.04882812 -26.81640625 8.75390625 C-27.00861497 4.82385134 -27.03049495 0.93384807 -27 -3 C-7.59995404 -5.92830882 -7.59995404 -5.92830882 0 0 Z " fill="#1907B0" transform="translate(284,426)"/>
<path d="M0 0 C4.46921414 2.23460707 6.27899864 5.45163926 8 10 C9.96672915 11.1500831 9.96672915 11.1500831 12 12 C12.66 12.99 13.32 13.98 14 15 C11.50217427 17.35648224 9.00133185 19.70974016 6.5 22.0625 C5.80390625 22.71927734 5.1078125 23.37605469 4.390625 24.05273438 C2.26999174 26.04573693 0.13760317 28.02521779 -2 30 C-2.71728271 30.67047363 -3.43456543 31.34094727 -4.17358398 32.03173828 C-4.86782471 32.66450684 -5.56206543 33.29727539 -6.27734375 33.94921875 C-6.89601318 34.51858154 -7.51468262 35.08794434 -8.15209961 35.67456055 C-10.76196476 37.54653279 -12.89463968 37.86701547 -16.05078125 37.55078125 C-21.10615341 36.12230936 -24.64376547 32.95825992 -27.5 28.625 C-29.20932286 24.49413642 -29.05021628 22.28838315 -28 18 C-26.68 18 -25.36 18 -24 18 C-22 20 -22 20 -21.625 23.4375 C-21.32042173 26.98259295 -21.32042173 26.98259295 -19.25 29 C-15.49150799 30.67044089 -12.74493912 29.24831304 -9 28 C-9 27.34 -9 26.68 -9 26 C-9.886875 26.12375 -10.77375 26.2475 -11.6875 26.375 C-15 26 -15 26 -17.875 23.625 C-20.48578197 20.05946604 -20.65822277 16.72300984 -20.41796875 12.3984375 C-19.56014628 7.47597959 -16.96780054 4.87562906 -13.375 1.625 C-8.80744402 -0.57419362 -4.981519 -0.93807825 0 0 Z " fill="#F7FCFF" transform="translate(135,388)"/>
<path d="M0 0 C2.31 0 4.62 0 7 0 C7.20956539 13.01633924 6.57575125 25.99965929 6 39 C3.69 39 1.38 39 -1 39 C-1.33 38.34 -1.66 37.68 -2 37 C-2.7734375 37.495 -2.7734375 37.495 -3.5625 38 C-7.02908486 39.42218866 -9.2717244 39.5055289 -13 39 C-16.81974237 36.60226073 -19.559773 34.320681 -21 30 C-21.49241379 24.40585644 -21.74420025 19.57108942 -19.3125 14.4375 C-15.79563158 10.73053059 -13.58330577 9.16666376 -8.4375 8.625 C-5 9 -5 9 -1 12 C-0.67 8.04 -0.34 4.08 0 0 Z " fill="#F8FCFF" transform="translate(237,423)"/>
<path d="M0 0 C5.44102658 2.3506856 9.44292586 5.56621745 12 11 C13.06406785 17.4908139 11.38100039 20.7861257 7.703125 26.1171875 C5.2513009 28.82769029 3.24025021 29.82399089 -0.3671875 30.3359375 C-7.61028624 30.44875835 -10.95687522 28.72279585 -16.375 23.875 C-18.78399014 19.61294051 -18.76025267 15.78421632 -18 11 C-14.15002082 3.30004165 -8.59939809 -0.83219982 0 0 Z " fill="#F6FBFF" transform="translate(178,419)"/>
<path d="M0 0 C4.3358959 3.37236348 6.3436301 5.2573984 7.25 10.75 C4.48113877 11.75577013 1.71015896 12.75480147 -1.0625 13.75 C-1.84818359 14.03617187 -2.63386719 14.32234375 -3.44335938 14.6171875 C-4.20068359 14.88789063 -4.95800781 15.15859375 -5.73828125 15.4375 C-6.43477783 15.68886719 -7.13127441 15.94023437 -7.84887695 16.19921875 C-9.75 16.75 -9.75 16.75 -12.75 16.75 C-9.57453992 20.53390117 -9.57453992 20.53390117 -5.125 22.25 C-2.34092451 21.66387884 -1.42939029 21.01717689 0.25 18.75 C0.58 17.76 0.91 16.77 1.25 15.75 C4.8125 14.5625 4.8125 14.5625 8.25 13.75 C7.89606658 19.64889027 6.53564461 22.65482848 2.25 26.75 C-2.09480105 28.82794833 -5.96972806 29.18457018 -10.75 28.75 C-14.8711663 26.92901954 -17.18373926 24.41608677 -19.75 20.75 C-21.47509591 15.57471226 -21.58564732 10.01116333 -19.6875 4.875 C-14.26059583 -1.07708844 -7.58526325 -3.44784693 0 0 Z " fill="#1907B0" transform="translate(316.75,425.25)"/>
<path d="M0 0 C4.2523578 0.25013869 6.47564781 0.56886598 9.8125 3.3125 C12.74158129 6.91108559 13.83751789 8.74656658 14.4375 13.375 C13.90449098 17.79136044 12.27344619 20.14093266 9 23 C6.24741265 24.50323759 3.41872246 25.48299702 0.4375 26.4375 C-0.31724609 26.70498047 -1.07199219 26.97246094 -1.84960938 27.24804688 C-5.71220305 28.55145954 -8.01787414 29.2774948 -12 28 C-12.33 26.35 -12.66 24.7 -13 23 C-12.34 23 -11.68 23 -11 23 C-11 22.34 -11 21.68 -11 21 C-11.61875 20.7525 -12.2375 20.505 -12.875 20.25 C-15.51939985 18.69447068 -16.07669938 17.92378529 -17 15 C-17.54688232 10.97295743 -17.62336242 8.03893736 -15.5 4.5 C-12.66240423 2.79744254 -10.34789546 2.25101364 -7.02734375 2.41796875 C-3.08978376 3.54840505 -1.12956753 6.67628245 1 10 C2.875 13.4375 2.875 13.4375 4 16 C4.99 15.67 5.98 15.34 7 15 C7.41780879 12.62694422 7.41780879 12.62694422 7 10 C6.21625 9.54625 5.4325 9.0925 4.625 8.625 C2 7 2 7 0.6875 3.3125 C0.460625 2.219375 0.23375 1.12625 0 0 Z " fill="#F6FBFF" transform="translate(96,333)"/>
<path d="M0 0 C6.3575551 2.05123279 12.50470962 4.57324287 18.67797852 7.11303711 C20.68950199 7.93832137 22.70501539 8.7533087 24.72070312 9.56835938 C26.00546824 10.09572142 27.28998249 10.62369512 28.57421875 11.15234375 C29.73526123 11.62663818 30.89630371 12.10093262 32.0925293 12.58959961 C34.69076887 13.84999343 36.27517184 14.71858103 38 17 C38.29296875 19.48046875 38.29296875 19.48046875 38.1875 22.1875 C38.14689453 23.53908203 38.14689453 23.53908203 38.10546875 24.91796875 C38.07066406 25.60503906 38.03585937 26.29210937 38 27 C36.02 27 34.04 27 32 27 C32 24.69 32 22.38 32 20 C26.06168048 19.62934792 21.60692387 20.89284748 16.0625 22.9375 C10.31860664 25.03726085 5.10762594 26.45107799 -1 27 C-1 24.69 -1 22.38 -1 20 C8.405 17.525 8.405 17.525 18 15 C12.02446731 12.59318822 6.04092479 10.23737955 0 8 C0 5.36 0 2.72 0 0 Z " fill="#1908B0" transform="translate(396,292)"/>
<path d="M0 0 C4.08636154 3.50729582 6.98331319 7.57753181 9.875 12.0625 C10.29007812 12.67416016 10.70515625 13.28582031 11.1328125 13.91601562 C14.05726781 18.42455089 14.05726781 18.42455089 13.7578125 21.43359375 C13.38269531 22.20896484 13.38269531 22.20896484 13 23 C11.35 23.33 9.7 23.66 8 24 C7.37351562 23.01257813 6.74703125 22.02515625 6.1015625 21.0078125 C5.27617582 19.71345611 4.45064761 18.41918996 3.625 17.125 C3.2125 16.47402344 2.8 15.82304687 2.375 15.15234375 C0.71997146 12.56302491 -0.81997379 10.18002621 -3 8 C-5.5 7.66666667 -5.5 7.66666667 -8 8 C-8.66 8.66 -9.32 9.32 -10 10 C-9.75733387 15.80725147 -6.8405537 19.74390243 -3.61914062 24.3203125 C-2.51953125 25.9765625 -2.51953125 25.9765625 -1 29 C-1.51171875 31.3359375 -1.51171875 31.3359375 -3 33 C-5.09301758 33.60400391 -5.09301758 33.60400391 -7 34 C-7.35304199 33.44014404 -7.70608398 32.88028809 -8.06982422 32.3034668 C-9.67115392 29.76456146 -11.27307041 27.22602687 -12.875 24.6875 C-13.70837891 23.36588867 -13.70837891 23.36588867 -14.55859375 22.01757812 C-15.36103516 20.74624023 -15.36103516 20.74624023 -16.1796875 19.44921875 C-16.67194824 18.66893311 -17.16420898 17.88864746 -17.67138672 17.0847168 C-18.76012949 15.37637895 -19.8763002 13.6855497 -21 12 C-21 11.01 -21 10.02 -21 9 C-18 7 -18 7 -16.125 6.6875 C-12.94579772 5.65893456 -11.26678931 3.38609401 -9 1 C-5.86128812 -0.56935594 -3.46144178 -0.35201103 0 0 Z " fill="#1908B0" transform="translate(344,409)"/>
<path d="M0 0 C0.66 0 1.32 0 2 0 C5 5.75 5 5.75 5 8 C6.65002828 9.35386936 8.3174387 10.68678142 10 12 C11.64424157 15.28848313 11.76288362 18.47083405 11 22 C6.65909715 28.19690725 -2.49080223 32.41311339 -9 36 C-9.66 36 -10.32 36 -11 36 C-11.66 34.02 -12.32 32.04 -13 30 C-11.45895312 28.9157852 -9.91712922 27.83267479 -8.375 26.75 C-7.46621094 26.10933594 -6.55742188 25.46867187 -5.62109375 24.80859375 C-3.58829997 23.40593575 -1.54487747 22.09547552 0.5625 20.8125 C3.08569402 19.22758036 3.08569402 19.22758036 4 16.9375 C4.17912194 14.66775769 4.17912194 14.66775769 2 12 C-3.27454592 11.14117624 -6.4498663 13.14088191 -10.625 16.0625 C-16.24630408 19.98057485 -16.24630408 19.98057485 -19.2734375 20.05859375 C-21.72498882 18.55549328 -22.03402968 16.63540178 -23 14 C-22.3387915 13.61142822 -21.67758301 13.22285645 -20.99633789 12.82250977 C-18.01746643 11.07074141 -15.03996787 9.31665288 -12.0625 7.5625 C-11.02158203 6.95083984 -9.98066406 6.33917969 -8.90820312 5.70898438 C-7.91884766 5.12568359 -6.92949219 4.54238281 -5.91015625 3.94140625 C-4.53549194 3.13231812 -4.53549194 3.13231812 -3.13305664 2.30688477 C-1.09383359 1.17167677 -1.09383359 1.17167677 0 0 Z " fill="#F7FCFF" transform="translate(113,358)"/>
<path d="M0 0 C-0.5625 2.3125 -0.5625 2.3125 -2 5 C-3.7634375 5.7115625 -3.7634375 5.7115625 -5.5625 6.4375 C-7.2640625 7.2109375 -7.2640625 7.2109375 -9 8 C-10.05749557 11.08369887 -10.05749557 11.08369887 -10 14 C-6.14295091 12.94807752 -4.22102233 11.27574729 -1.625 8.375 C1.01038008 5.63649635 1.74039739 5.05371088 5.625 4.25 C10.00756435 5.22390319 11.53779107 6.22974258 14 10 C14.69255925 14.33674009 13.87713016 17.67539989 11.4609375 21.32421875 C6.93453372 26.68848876 6.93453372 26.68848876 3 28 C0.66700175 28.03954234 -1.66708189 28.04401732 -4 28 C-3.38722388 25.03824877 -2.74627478 23.61941217 -1 21 C2.625 20.3125 2.625 20.3125 6 20 C6.33 17.69 6.66 15.38 7 13 C2.84889145 13.50991126 1.01934202 14.59009481 -1.875 17.5625 C-4.78371381 20.22973568 -5.7306646 20.95062184 -9.75 21.6875 C-13 21 -13 21 -15.4375 19.5 C-17.62644986 15.99768023 -17.86068579 12.95032708 -17 9 C-15.31049873 5.57425237 -13.17558535 2.93236079 -10.1875 0.5625 C-6.76691811 -0.3170782 -3.52458994 -0.11748633 0 0 Z " fill="#1908B0" transform="translate(390,363)"/>
<path d="M0 0 C0.495 3.465 0.495 3.465 1 7 C-9.59701724 9.02463338 -20.26714138 10.0030744 -31 11 C-30.34 16.61 -29.68 22.22 -29 28 C-31.31 28 -33.62 28 -36 28 C-36.34463964 26.06447917 -36.67496739 24.12640979 -37 22.1875 C-37.185625 21.10855469 -37.37125 20.02960938 -37.5625 18.91796875 C-38.11951397 13.92970975 -38.08183768 9.01312626 -38 4 C-33.2314722 3.42735022 -28.46259128 2.85777156 -23.69335938 2.29101562 C-22.07151419 2.09784621 -20.44976808 1.9038431 -18.828125 1.70898438 C-16.49504838 1.42878645 -14.16163004 1.15160446 -11.828125 0.875 C-11.10506165 0.78750488 -10.38199829 0.70000977 -9.63702393 0.60986328 C-6.38622979 0.22724709 -3.28045809 0 0 0 Z " fill="#F6FCFF" transform="translate(111,303)"/>
<path d="M0 0 C9.66666667 -0.56862745 9.66666667 -0.56862745 14 3 C17.7969382 7.11104015 17.49570441 10.76541707 17.3515625 16.14453125 C16.89114568 19.88413895 15.92690126 21.62683681 13 24 C8.99836615 26.27119759 5.52291886 26.05832603 1 26 C0.28038418 17.31320899 -0.14368684 8.71700174 0 0 Z " fill="#37B2FD" transform="translate(265,429)"/>
<path d="M0 0 C1.65 0.33 3.3 0.66 5 1 C4.67 2.98 4.34 4.96 4 7 C11.86739145 9.68218957 11.86739145 9.68218957 20 11 C21.89958081 9.68681738 21.89958081 9.68681738 23 8 C24.32 8.66 25.64 9.32 27 10 C25.84414715 13.91211733 24.64465038 16.8745041 22 20 C16.85404946 19.42381249 12.44921945 18.25256722 7.5625 16.4375 C6.32628906 15.98246094 5.09007812 15.52742188 3.81640625 15.05859375 C2.88699219 14.70925781 1.95757812 14.35992187 1 14 C0.67 14.99 0.34 15.98 0 17 C-2.475 16.01 -2.475 16.01 -5 15 C-5 13.68 -5 12.36 -5 11 C-6.134375 10.5875 -7.26875 10.175 -8.4375 9.75 C-12 8 -12 8 -13.0625 6 C-13 4 -13 4 -11 1 C-7.7 1.99 -4.4 2.98 -1 4 C-0.67 2.68 -0.34 1.36 0 0 Z " fill="#1907B0" transform="translate(389,341)"/>
<path d="M0 0 C3.36237194 0.48033885 5.30841819 1.49344226 8.0625 3.4375 C7.4025 5.0875 6.7425 6.7375 6.0625 8.4375 C4.0825 8.4375 2.1025 8.4375 0.0625 8.4375 C-0.2675 9.0975 -0.5975 9.7575 -0.9375 10.4375 C0.0525 11.0975 1.0425 11.7575 2.0625 12.4375 C1.4025 14.0875 0.7425 15.7375 0.0625 17.4375 C-1.5875 16.7775 -3.2375 16.1175 -4.9375 15.4375 C-5.29054199 15.94724365 -5.64358398 16.4569873 -6.00732422 16.98217773 C-7.60454885 19.28294805 -9.2084222 21.57900305 -10.8125 23.875 C-11.36808594 24.67744141 -11.92367187 25.47988281 -12.49609375 26.30664062 C-13.03105469 27.07041016 -13.56601563 27.83417969 -14.1171875 28.62109375 C-14.60944824 29.32806396 -15.10170898 30.03503418 -15.60888672 30.76342773 C-16.9375 32.4375 -16.9375 32.4375 -18.9375 33.4375 C-21.5625 32 -21.5625 32 -23.9375 30.4375 C-22.65580364 27.74068964 -21.2463756 25.3494962 -19.484375 22.94140625 C-18.80375 21.97944336 -18.80375 21.97944336 -18.109375 20.99804688 C-17.15801118 19.66117162 -16.19430099 18.33300081 -15.21875 17.01367188 C-13.93799063 15.17902088 -12.80764019 13.49977817 -11.9375 11.4375 C-12.45860667 8.50337607 -12.45860667 8.50337607 -13.9375 6.4375 C-13.2775 5.7775 -12.6175 5.1175 -11.9375 4.4375 C-11.15375 4.47875 -10.37 4.52 -9.5625 4.5625 C-6.77868336 4.73001131 -6.77868336 4.73001131 -5 2.4375 C-2.9375 0.4375 -2.9375 0.4375 0 0 Z " fill="#F6FCFF" transform="translate(162.9375,400.5625)"/>
<path d="M0 0 C3.43595166 1.52708963 6.11912454 3.59927045 9 6 C10.32 5.34 11.64 4.68 13 4 C13.99 5.32 14.98 6.64 16 8 C14.02 8.99 14.02 8.99 12 10 C13.72219718 11.9931046 15.45202711 13.9779384 17.19921875 15.94921875 C18.52265464 17.45638544 19.80487574 18.99999713 21.0625 20.5625 C23.02205649 22.36047033 23.02205649 22.36047033 26.125 21.625 C27.07375 21.41875 28.0225 21.2125 29 21 C31 23 31 23 31 26 C28.48944275 28.58439717 26.79508346 29.8626471 23.21875 30.48046875 C18.62534686 29.79480299 16.69798532 27.44078909 13.625 24.125 C13.07972656 23.56941406 12.53445313 23.01382812 11.97265625 22.44140625 C8 18.30944549 8 18.30944549 8 16 C6.35 16.66 4.7 17.32 3 18 C2.01 16.68 1.02 15.36 0 14 C0.66 13.01 1.32 12.02 2 11 C1.154375 10.2575 0.30875 9.515 -0.5625 8.75 C-3 6 -3 6 -2.9375 3.8125 C-2 2 -2 2 0 0 Z " fill="#1806AF" transform="translate(346,389)"/>
<path d="M0 0 C2.31 0.33 4.62 0.66 7 1 C7.061875 2.093125 7.12375 3.18625 7.1875 4.3125 C7.59789108 8.04552493 7.59789108 8.04552493 10.09375 9.625 C13.47645772 11.22542086 16.6428344 11.96728526 20.3125 12.6875 C21.56675781 12.93886719 22.82101562 13.19023437 24.11328125 13.44921875 C25.06589844 13.63097656 26.01851563 13.81273437 27 14 C26.67 16.31 26.34 18.62 26 21 C20.26886812 20.37690978 14.78547872 19.36367354 9.1875 18 C8.43791016 17.82210938 7.68832031 17.64421875 6.91601562 17.4609375 C3.89980685 16.73855685 0.94372788 15.98124263 -2 15 C-1.67 13.02 -1.34 11.04 -1 9 C-0.01 9 0.98 9 2 9 C1.67 8.443125 1.34 7.88625 1 7.3125 C-0.1309601 4.69715478 -0.15662974 2.8193354 0 0 Z " fill="#1908B0" transform="translate(393,321)"/>
<path d="M0 0 C2.3431213 0.25561323 4.67843403 0.59270772 7 1 C7.33 1.66 7.66 2.32 8 3 C10.64 3 13.28 3 16 3 C15.67 4.98 15.34 6.96 15 9 C13.906875 9.0825 12.81375 9.165 11.6875 9.25 C8.0833199 9.63507893 8.0833199 9.63507893 6.40625 11.5625 C4.54096912 14.79565352 3.68586548 18.15458881 2.8125 21.75 C2.63525391 22.44738281 2.45800781 23.14476562 2.27539062 23.86328125 C1.84199251 25.57344679 1.41985982 27.28646044 1 29 C-1.31 28.67 -3.62 28.34 -6 28 C-4.18551194 18.62514501 -2.0905786 9.31626772 0 0 Z " fill="#F7FCFF" transform="translate(198,428)"/>
<path d="M0 0 C3.4375 0.625 3.4375 0.625 5.875 2.25 C7.93379933 5.37937499 8.02814006 6.93349963 7.4375 10.625 C4.27960526 16.20394737 4.27960526 16.20394737 1.4375 17.625 C-2.10481061 18.01003376 -3.92507342 18.04435959 -6.9375 16.0625 C-9.22294885 12.63432673 -9.1909325 10.67489831 -8.5625 6.625 C-6.5859754 2.62822237 -4.49391652 0.78840641 0 0 Z " fill="#3EB8FF" transform="translate(175.5625,425.375)"/>
<path d="M0 0 C3.4375 1.0625 3.4375 1.0625 5.375 2.625 C6.90148965 6.12694685 7.09195622 9.34901248 6.4375 13.0625 C4.8125 16.0625 4.8125 16.0625 2.4375 18.0625 C-1.15261393 18.73564636 -2.81349332 18.51584615 -5.9375 16.625 C-8.35135746 12.81853247 -8.31783533 9.44655968 -7.5625 5.0625 C-5.47729219 0.89208437 -4.71094079 0.08264808 0 0 Z " fill="#3DB8FF" transform="translate(230.5625,437.9375)"/>
<path d="M0 0 C3.5 0.875 3.5 0.875 5.4375 2.625 C6.74398766 5.39167975 7.0168207 6.84790731 6.5 9.875 C4.69337585 12.52471542 3.38758942 14.43120529 0.5 15.875 C-5.67422868 16.44668784 -5.67422868 16.44668784 -8.9375 14.1875 C-10.5 11.875 -10.5 11.875 -11 9.4375 C-10.33547886 6.03182915 -8.8641725 4.37426807 -6.5 1.875 C-3.5 -0.125 -3.5 -0.125 0 0 Z " fill="#42B9FF" transform="translate(131.5,394.125)"/>
<path d="M0 0 C4.41617649 1.42946762 7.08458934 3.6403136 10.4375 6.8125 C14.20897514 10.33424233 17.99282429 13.75093861 22 17 C21.01 19.475 21.01 19.475 20 22 C14.9841923 22 14.28985078 20.83069982 10.75 17.4375 C9.78055804 16.52148927 8.81050078 15.60612932 7.83984375 14.69140625 C6.90269531 13.80324219 5.96554687 12.91507812 5 12 C3.4455857 10.61586582 1.88424609 9.2394213 0.3125 7.875 C-0.33074219 7.31554687 -0.97398437 6.75609375 -1.63671875 6.1796875 C-2.08660156 5.79039062 -2.53648437 5.40109375 -3 5 C-1.125 1.125 -1.125 1.125 0 0 Z " fill="#1907B0" transform="translate(365,384)"/>
<path d="M0 0 C2.25 0.125 2.25 0.125 5 1 C7.375 3.875 7.375 3.875 9 7 C8.67 7.99 8.34 8.98 8 10 C5.75 10.3125 5.75 10.3125 3 10 C0.625 7.8125 0.625 7.8125 -1 5 C-0.75 2.1875 -0.75 2.1875 0 0 Z " fill="#42B9FF" transform="translate(86,343)"/>
<path d="M0 0 C0.66 0.33 1.32 0.66 2 1 C-6.25 9.25 -14.5 17.5 -23 26 C-23.66 25.67 -24.32 25.34 -25 25 C-17.0857148 16.15881654 -8.84118346 7.9142852 0 0 Z " fill="#80D0FF" transform="translate(87,59)"/>
<path d="M0 0 C3.5625 0.125 3.5625 0.125 5.5625 1.125 C4.5625 4.125 4.5625 4.125 2.85546875 5.109375 C2.16066406 5.36203125 1.46585937 5.6146875 0.75 5.875 C0.06292969 6.13796875 -0.62414062 6.4009375 -1.33203125 6.671875 C-3.71893969 7.18556958 -5.14387773 6.88782269 -7.4375 6.125 C-3.90915317 0.14215102 -3.90915317 0.14215102 0 0 Z " fill="#36AEFB" transform="translate(309.4375,429.875)"/>
<path d="M0 0 C0.598125 0.226875 1.19625 0.45375 1.8125 0.6875 C2.4375 3.0625 2.4375 3.0625 2.8125 5.6875 C2.1525 6.3475 1.4925 7.0075 0.8125 7.6875 C-1.8125 7.3125 -1.8125 7.3125 -4.1875 6.6875 C-4.875 4.875 -4.875 4.875 -5.1875 2.6875 C-3.58493056 0.24147296 -2.95482043 -0.4221172 0 0 Z " fill="#1806AF" transform="translate(359.1875,377.3125)"/>
</svg>
